<svg width="94" height="95" viewBox="0 0 94 95" fill="none" xmlns="http://www.w3.org/2000/svg">
<circle cx="47.0004" cy="47.7363" r="46.9076" fill="white"/>
<circle cx="47.0004" cy="47.7363" r="46.9076" fill="white"/>
<path d="M93.9081 47.7363C93.9081 73.6426 72.9068 94.6439 47.0004 94.6439C21.094 94.6439 0.0927734 73.6426 0.0927734 47.7363C0.0927734 21.8299 21.094 0.828613 47.0004 0.828613C72.9068 0.828613 93.9081 21.8299 93.9081 47.7363Z" fill="#F53B16"/>
<circle cx="47.0004" cy="47.7363" r="46.9076" fill="white"/>
<path fill-rule="evenodd" clip-rule="evenodd" d="M45.1142 94.6066L36.5119 45.8205C35.4211 45.6228 34.3545 45.1917 33.3869 44.5142C29.8037 42.0052 28.9329 37.0665 31.4418 33.4833C33.9508 29.9001 38.8895 29.0293 42.4727 31.5383C46.0559 34.0473 46.9267 38.9859 44.4177 42.5691C43.6927 43.6046 42.7648 44.4135 41.7253 44.9799L50.4603 94.5182C49.3179 94.6014 48.1642 94.6438 47.0006 94.6438C46.3688 94.6438 45.7399 94.6313 45.1142 94.6066Z" fill="#F53B16"/>
<path fill-rule="evenodd" clip-rule="evenodd" d="M47.3203 94.6429L56.7951 26.1091C56.3362 25.8884 55.8936 25.6159 55.4753 25.2907C52.3019 22.8228 51.73 18.2496 54.1979 15.0762C56.6657 11.9028 61.2389 11.3308 64.4123 13.7987C67.5857 16.2666 68.1577 20.8398 65.6898 24.0132C64.6298 25.3762 63.1813 26.2594 61.6222 26.6278L52.2593 94.3525C50.6365 94.5336 48.9888 94.6318 47.3203 94.6429Z" fill="#FBBC05"/>
<path fill-rule="evenodd" clip-rule="evenodd" d="M45.5977 94.6235L71.1375 58.8021C68.7721 55.5408 69.3235 50.9591 72.4743 48.3606C75.7508 45.6586 80.5973 46.1242 83.2993 49.4007C86.0013 52.6771 85.5357 57.5236 82.2593 60.2257C80.2613 61.8734 77.6794 62.3431 75.3561 61.7159L52.0722 94.373C50.4061 94.5522 48.7139 94.6441 47.0002 94.6441C46.5311 94.6441 46.0635 94.6372 45.5977 94.6235Z" fill="#229F43"/>
<path fill-rule="evenodd" clip-rule="evenodd" d="M45.0836 94.6056L16.9531 58.0253C15.3217 58.5848 13.4875 58.5755 11.768 57.8654C8.01773 56.3166 6.23305 52.0208 7.78183 48.2705C9.33062 44.5202 13.6264 42.7355 17.3767 44.2843C21.127 45.8331 22.9117 50.1288 21.3629 53.8791C21.2017 54.2695 21.0107 54.6386 20.7937 54.9849L51.1525 94.4628C49.7845 94.5828 48.3997 94.644 47.0006 94.644C46.3585 94.644 45.7194 94.6311 45.0836 94.6056Z" fill="#388BFF"/>
</svg>
