      <svg
        viewBox="0 0 445 95"
        xmlns="http://www.w3.org/2000/svg"
        class="fill-bg-dark-background fill-dark-background dark:fill-light-background h-full"
      >
        <path
          fill-rule="evenodd"
          clip-rule="evenodd"
          d="M52.458 93.9111C75.8888 91.2969 94.1063 71.4234 94.1063 47.295C94.1063 21.3886 73.105 0.387329 47.1987 0.387329C21.2923 0.387329 0.291016 21.3886 0.291016 47.295C0.291016 72.1894 19.6836 92.5544 44.1862 94.1075C44.1197 94.1032 44.0533 94.0989 43.987 94.0944L43.6174 91.9984L17.1525 57.5841C15.5211 58.1437 13.6869 58.1343 11.9674 57.4242C8.21713 55.8754 6.43245 51.5796 7.98124 47.8293C9.53003 44.079 13.8258 42.2943 17.5761 43.8431C21.3264 45.3919 23.1111 49.6877 21.5623 53.438C21.4011 53.8284 21.2101 54.1975 20.9931 54.5437L41.7792 81.5735L35.497 45.9456C34.1012 45.8536 32.7121 45.3907 31.4826 44.5297C27.8994 42.0208 27.0285 37.0821 29.5375 33.4989C31.3783 30.87 34.5269 29.7011 37.4885 30.2558L38.074 30.1526L38.1177 30.4006C38.972 30.6344 39.8012 31.0167 40.5684 31.5538C44.1516 34.0628 45.0224 39.0015 42.5134 42.5847C41.9763 43.3518 41.3277 43.9947 40.605 44.5066L48.3314 88.3256L56.9939 25.6679C56.535 25.4472 56.0924 25.1748 55.6741 24.8495C52.5007 22.3816 51.9287 17.8084 54.3966 14.635C56.8645 11.4616 61.4376 10.8897 64.611 13.3576C67.7845 15.8254 68.3564 20.3986 65.8885 23.572C64.8285 24.9351 63.3801 25.8182 61.8209 26.1866L54.0138 82.6578L71.337 58.3608C68.9716 55.0995 69.523 50.5178 72.6739 47.9193C75.9503 45.2173 80.7968 45.6829 83.4988 48.9594C86.2009 52.2358 85.7352 57.0823 82.4588 59.7843C80.4608 61.4321 77.879 61.9018 75.5556 61.2746L52.4993 93.6125L52.458 93.9111Z"
        ></path>
        <path
          d="M141.193 69.5978H148.189V71.7834H143.968V77.258H147.279V79.4435H143.968V87.8964H141.193V69.5978Z"
        ></path>
        <path
          d="M168.254 69.5978H175.036V71.7834H171.029V77.258H174.125V79.4435H171.029V85.7109H175.143V87.8964H168.254V69.5978Z"
        ></path>
        <path
          d="M194.65 84.1896C194.65 83.7968 194.672 83.4361 194.714 83.1075C194.764 82.7718 194.836 82.4111 194.929 82.0255H197.082V82.9147C197.082 83.4075 197.111 83.8432 197.168 84.2217C197.232 84.6003 197.332 84.9217 197.468 85.1859C197.611 85.4431 197.796 85.6395 198.025 85.7752C198.261 85.9037 198.546 85.968 198.882 85.968C199.411 85.968 199.814 85.8252 200.093 85.5395C200.371 85.2466 200.51 84.8217 200.51 84.2646C200.51 83.9789 200.489 83.7182 200.446 83.4825C200.41 83.2397 200.343 83.0004 200.243 82.7647C200.15 82.529 200.021 82.2826 199.857 82.0255C199.693 81.7612 199.482 81.4684 199.225 81.147L196.332 77.7079C195.818 77.0508 195.422 76.3902 195.143 75.7259C194.864 75.0546 194.725 74.3403 194.725 73.5832C194.725 72.9762 194.818 72.4191 195.004 71.9119C195.197 71.4048 195.472 70.9692 195.829 70.6049C196.186 70.2335 196.625 69.9478 197.146 69.7478C197.675 69.5407 198.271 69.4371 198.936 69.4371C199.743 69.4371 200.414 69.5514 200.95 69.78C201.493 70.0085 201.925 70.3085 202.246 70.6799C202.567 71.0513 202.792 71.4691 202.921 71.9334C203.057 72.3905 203.125 72.8512 203.125 73.3154C203.125 73.7082 203.092 74.0725 203.028 74.4082C202.971 74.7367 202.903 75.101 202.825 75.501H200.682V74.6332C200.682 73.6618 200.543 72.919 200.264 72.4048C199.985 71.8834 199.532 71.6227 198.903 71.6227C198.382 71.6227 197.993 71.7691 197.736 72.0619C197.479 72.3476 197.35 72.7333 197.35 73.219C197.35 73.4761 197.368 73.7082 197.404 73.9154C197.446 74.1225 197.504 74.3153 197.575 74.4939C197.654 74.6653 197.746 74.8332 197.854 74.9974C197.961 75.1617 198.082 75.3331 198.218 75.5117L201.443 79.4114C202.028 80.1756 202.478 80.9113 202.792 81.6184C203.107 82.3183 203.264 83.0611 203.264 83.8468C203.264 84.4967 203.16 85.0824 202.953 85.6038C202.753 86.1252 202.464 86.568 202.085 86.9322C201.707 87.2965 201.25 87.5786 200.714 87.7786C200.178 87.9714 199.575 88.0679 198.903 88.0679C198.075 88.0679 197.386 87.9572 196.836 87.7357C196.293 87.5143 195.857 87.2215 195.529 86.8572C195.207 86.493 194.979 86.0787 194.843 85.6145C194.714 85.1502 194.65 84.6753 194.65 84.1896Z"
        ></path>
        <path
          d="M225.503 71.7834H222.557V69.5978H231.214V71.7834H228.278V87.8964H225.503V71.7834Z"
        ></path>
        <path
          d="M141.193 12.2763H168.169C170.64 12.2763 172.883 12.7797 174.896 13.7864C176.909 14.7474 178.488 16.1202 179.632 17.9049C180.776 19.6438 181.348 21.6572 181.348 23.9453C181.348 26.5536 180.616 28.8188 179.152 30.7407C177.733 32.6169 175.903 33.9211 173.66 34.6532V34.9278C176.315 35.4312 178.465 36.7353 180.113 38.8403C181.806 40.8995 182.652 43.3477 182.652 46.1849C182.652 50.4406 181.28 53.7125 178.534 56.0005C175.834 58.2428 172.379 59.3639 168.169 59.3639H141.193V12.2763ZM165.355 31.0839C167.185 31.0839 168.604 30.6263 169.611 29.7111C170.617 28.7501 171.121 27.5375 171.121 26.0731C171.121 24.3342 170.64 23.0072 169.679 22.092C168.764 21.1768 167.483 20.7191 165.835 20.7191H151.215V31.0839H165.355ZM166.522 50.9211C168.261 50.9211 169.679 50.4177 170.778 49.411C171.876 48.4043 172.425 46.9628 172.425 45.0866C172.425 43.3935 171.876 42.0207 170.778 40.9682C169.679 39.9157 168.078 39.3894 165.973 39.3894H151.215V50.9211H166.522Z"
        ></path>
        <path d="M188.671 12.2763H198.624V59.3639H188.671V12.2763Z"></path>
        <path
          d="M204.343 54.6964L228.161 20.7191H206.128V12.2763H242.782V17.0125L219.032 50.9211H243.4V59.3639H204.343V54.6964Z"
        ></path>
        <path
          d="M249.737 12.2763H259.415L277.537 37.8794C278.086 38.6573 279.001 40.1903 280.282 42.4783L280.625 42.2724L280.419 38.2912V12.2763H290.098V59.3639H280.419L262.23 33.555C261.36 32.3194 260.468 30.8093 259.553 29.0247L259.209 29.2306C259.347 31.1983 259.415 32.5711 259.415 33.3491V59.3639H249.737V12.2763Z"
        ></path>
        <path
          d="M313.208 12.2763H325.7L344.096 59.3639H333.251L329.887 50.372H308.472L305.108 59.3639H294.812L313.208 12.2763ZM326.73 42.0664L322.268 30.1229C321.719 28.6586 320.735 25.5698 319.317 20.8564H318.974C317.555 25.5698 316.571 28.6586 316.022 30.1229L311.56 42.0664H326.73Z"
        ></path>
        <path
          d="M367.137 60.1876C359.862 60.1876 354.233 58.197 350.252 54.2159C346.316 50.2347 344.349 44.1028 344.349 35.8201C344.349 27.7205 346.454 21.6344 350.664 17.5617C354.874 13.489 360.822 11.4526 368.51 11.4526C372.583 11.4526 376.29 12.0933 379.63 13.3746C383.016 14.6101 385.693 16.5092 387.661 19.0718C389.675 21.5886 390.681 24.6774 390.681 28.3383H380.385C380.385 25.7757 379.241 23.7393 376.953 22.2292C374.711 20.6734 372.011 19.8955 368.853 19.8955C364.049 19.8955 360.456 21.1768 358.077 23.7393C355.743 26.3019 354.576 29.9857 354.576 34.7905V36.8497C354.576 41.8834 355.652 45.6358 357.802 48.1068C359.999 50.5321 363.339 51.7448 367.824 51.7448C371.53 51.7448 374.596 50.8753 377.022 49.1364C379.447 47.3518 380.683 44.9494 380.728 41.9292H366.451V33.7609H390.681V59.3639H383.817L382.925 54.1472C380.728 56.2522 378.417 57.7852 375.992 58.7462C373.567 59.7071 370.615 60.1876 367.137 60.1876Z"
        ></path>
        <path
          d="M413.423 12.2763H425.916L444.312 59.3639H433.466L430.103 50.372H408.687L405.324 59.3639H395.028L413.423 12.2763ZM426.946 42.0664L422.484 30.1229C421.935 28.6586 420.951 25.5698 419.532 20.8564H419.189C417.771 25.5698 416.787 28.6586 416.238 30.1229L411.776 42.0664H426.946Z"
        ></path>
      </svg>