<?xml version="1.0" encoding="UTF-8" standalone="no"?>
<!-- Created with Inkscape (http://www.inkscape.org/) -->

<svg
   xmlns:dc="http://purl.org/dc/elements/1.1/"
   xmlns:cc="http://creativecommons.org/ns#"
   xmlns:rdf="http://www.w3.org/1999/02/22-rdf-syntax-ns#"
   xmlns:svg="http://www.w3.org/2000/svg"
   xmlns="http://www.w3.org/2000/svg"
   xmlns:sodipodi="http://sodipodi.sourceforge.net/DTD/sodipodi-0.dtd"
   xmlns:inkscape="http://www.inkscape.org/namespaces/inkscape"
   width="90.794556mm"
   height="97.630966mm"
   viewBox="0 0 90.794555 97.630966"
   version="1.1"
   id="svg3785"
   sodipodi:docname="angular-malaga.svg"
   inkscape:version="0.92.4 5da689c313, 2019-01-14"
   inkscape:export-filename="/home/nya/Pictures/cathedral3.svg.png"
   inkscape:export-xdpi="2341.8999"
   inkscape:export-ydpi="2341.8999">
  <defs
     id="defs3779" />
  <sodipodi:namedview
     id="base"
     pagecolor="#ffffff"
     bordercolor="#666666"
     borderopacity="1.0"
     inkscape:pageopacity="0.0"
     inkscape:pageshadow="2"
     inkscape:zoom="1.4142136"
     inkscape:cx="292.19373"
     inkscape:cy="215.79273"
     inkscape:document-units="mm"
     inkscape:current-layer="layer1"
     showgrid="false"
     showguides="true"
     inkscape:object-nodes="false"
     inkscape:snap-smooth-nodes="true"
     inkscape:window-width="765"
     inkscape:window-height="687"
     inkscape:window-x="238"
     inkscape:window-y="10"
     inkscape:window-maximized="0"
     inkscape:guide-bbox="true"
     fit-margin-top="0"
     fit-margin-left="0"
     fit-margin-right="0"
     fit-margin-bottom="0"
     inkscape:snap-text-baseline="true">
    <inkscape:grid
       type="xygrid"
       id="grid3787"
       spacingx="0.052916667"
       spacingy="0.052916667"
       empspacing="4"
       originx="-47.454062"
       originy="-61.29944" />
    <sodipodi:guide
       position="22.607603,76.495558"
       orientation="1,0"
       id="guide4989"
       inkscape:locked="false" />
    <sodipodi:guide
       position="6.8765441,21.413666"
       orientation="0,1"
       id="guide5010"
       inkscape:locked="false" />
    <sodipodi:guide
       position="25.568445,35.934914"
       orientation="0,1"
       id="guide5467"
       inkscape:locked="false" />
  </sodipodi:namedview>
  <metadata
     id="metadata3782">
    <rdf:RDF>
      <cc:Work
         rdf:about="">
        <dc:format>image/svg+xml</dc:format>
        <dc:type
           rdf:resource="http://purl.org/dc/dcmitype/StillImage" />
        <dc:title></dc:title>
      </cc:Work>
    </rdf:RDF>
  </metadata>
  <g
     inkscape:label="Layer 1"
     inkscape:groupmode="layer"
     id="layer1"
     transform="translate(-47.454061,-138.06959)">
    <g
       id="g5197"
       transform="matrix(2.823593,0,0,2.823593,141.64536,-380.66962)"
       inkscape:export-xdpi="780.50934"
       inkscape:export-ydpi="780.50934">
      <path
         style="fill:#dc0030;stroke-width:0.08466666"
         d="m -24.087668,214.57802 c -3.725333,-2.06671 -6.801358,-3.80776 -6.835611,-3.869 -0.06649,-0.11889 -2.435388,-20.59403 -2.435388,-21.04988 0,-0.14876 0.01225,-0.27047 0.02723,-0.27047 0.01498,0 3.60573,-1.27635 7.979451,-2.83633 4.373722,-1.55999 8.022191,-2.83634 8.107708,-2.83634 0.207955,0 15.9047218,5.58825 16.0299142,5.70685 0.073902,0.07 -0.202195,2.69304 -1.1237612,10.67615 -1.0836951,9.38755 -1.2398289,10.59855 -1.3818716,10.71802 -0.1673598,0.14076 -13.2456974,7.40042 -13.4673394,7.47558 -0.07038,0.0239 -3.146799,-1.63222 -6.900333,-3.71458 z"
         id="path5201"
         inkscape:connector-curvature="0" />
      <path
         style="fill:#c2002e;stroke-width:0.08466666"
         d="m -17.272001,201.04154 c 0,-9.43042 0.03136,-17.16559 0.06969,-17.18928 0.03833,-0.0237 3.629258,1.22615 7.9798333,2.77742 6.720705,2.39639 7.913997,2.84612 7.9358079,2.99085 0.014119,0.0937 -0.5131604,4.85188 -1.1717324,10.57374 -0.9773208,8.49125 -1.2232461,10.42888 -1.3380042,10.54206 -0.143841,0.14185 -13.1639676,7.37447 -13.3647406,7.42405 -0.09109,0.0225 -0.110859,-3.02983 -0.110859,-17.11884 z"
         id="path5199"
         inkscape:connector-curvature="0" />
    </g>
    <path
       inkscape:connector-curvature="0"
       style="fill:#ffffff;fill-opacity:1;stroke:none;stroke-width:0.00000004;stroke-linecap:butt;stroke-linejoin:miter;stroke-miterlimit:4;stroke-dasharray:none;stroke-opacity:1"
       d="m 75.678841,185.87516 v 26.45833 h 1.809413 v -11.84578 c 0.453821,-3.43428 6.085146,-3.89624 6.924904,0 v 11.84578 h 1.979523 v -26.45833 z m 2.639366,3.04581 c 0.366511,0.0163 0.732715,0.33488 0.916594,0.90744 v 3.82664 h -1.833187 v -3.82664 c 0.183327,-0.63776 0.550083,-0.92374 0.916593,-0.90744 z m 2.677404,0 c 0.36651,0.0163 0.733244,0.33488 0.917121,0.90744 v 3.82664 h -1.833186 v -3.82664 c 0.183326,-0.63776 0.549554,-0.92374 0.916065,-0.90744 z m 2.650989,0 c 0.36651,0.0163 0.733243,0.33488 0.917122,0.90744 v 3.82664 h -1.833188 v -3.82664 c 0.183327,-0.63776 0.549556,-0.92374 0.916066,-0.90744 z"
       id="path3795" />
    <path
       inkscape:connector-curvature="0"
       style="fill:#ffffff;fill-opacity:1;stroke:none;stroke-width:0.00000004;stroke-linecap:butt;stroke-linejoin:miter;stroke-miterlimit:4;stroke-dasharray:none;stroke-opacity:1"
       d="m 86.275751,185.87516 v 26.45833 h 2.010731 l 0.04547,-13.57074 c 1.270002,-5.08 7.952177,-5.17151 9.222177,-0.0915 l 0.04547,13.66221 h 1.905309 v -26.45833 z m 3.465422,3.02927 c 0.423175,0.0163 0.846545,0.33375 1.05885,0.90383 v 3.8101 h -2.116666 v -3.8101 c 0.211667,-0.635 0.634642,-0.92006 1.057816,-0.90383 z m 3.175,0.0269 c 0.423175,0.0163 0.846545,0.33376 1.05885,0.90383 v 3.80958 h -2.116667 v -3.80958 c 0.211669,-0.635 0.634643,-0.92005 1.057817,-0.90383 z m 3.121774,0.009 c 0.423172,0.0162 0.846545,0.33375 1.058849,0.90382 v 3.80959 H 94.98013 v -3.80959 c 0.211666,-0.635 0.634643,-0.92005 1.057817,-0.90382 z"
       id="path3797" />
    <path
       inkscape:connector-curvature="0"
       style="fill:#ffffff;fill-opacity:1;stroke:#f9f9f9;stroke-width:0;stroke-linecap:butt;stroke-linejoin:miter;stroke-miterlimit:4;stroke-dasharray:none;stroke-opacity:1"
       d="m 99.39743,185.87516 v 26.45833 h 1.86808 v -11.84578 c 0.45294,-3.43428 6.07323,-3.89624 6.91134,0 v 11.84578 h 2.01889 v -26.45833 z m 2.73965,3.04581 c 0.3658,0.0163 0.73128,0.33488 0.9148,0.90744 v 3.82664 h -1.8296 v -3.82664 c 0.18296,-0.63776 0.54901,-0.92374 0.9148,-0.90744 z m 2.67216,0 c 0.36579,0.0163 0.73181,0.33488 0.91532,0.90744 v 3.82664 h -1.82959 v -3.82664 c 0.18296,-0.63776 0.54848,-0.92374 0.91427,-0.90744 z m 2.64579,0 c 0.3658,0.0163 0.73181,0.33488 0.91533,0.90744 v 3.82664 h -1.8296 v -3.82664 c 0.18298,-0.63776 0.54848,-0.92374 0.91427,-0.90744 z"
       id="path3799" />
    <path
       style="fill:#ffffff;fill-opacity:1;stroke:none;stroke-width:0.00000004;stroke-linecap:butt;stroke-linejoin:miter;stroke-miterlimit:4;stroke-dasharray:none;stroke-opacity:1"
       d="m 110.08804,185.875 c 13.22917,0 13.22917,0 13.22917,0 z"
       id="path3815"
       inkscape:connector-curvature="0" />
    <path
       style="fill:#ffffff;fill-opacity:1;stroke:none;stroke-width:0.00000004;stroke-linecap:butt;stroke-linejoin:miter;stroke-miterlimit:4;stroke-dasharray:none;stroke-opacity:1"
       d="M 123.31721,199.10417 H 110.08804"
       id="path3835"
       inkscape:connector-curvature="0" />
    <path
       style="fill:#ffffff;fill-opacity:1;stroke:none;stroke-width:0.00000004;stroke-linecap:butt;stroke-linejoin:miter;stroke-miterlimit:4;stroke-dasharray:none;stroke-opacity:1"
       d="M 75.692206,199.10417 H 62.463039"
       id="path3839"
       inkscape:connector-curvature="0" />
    <path
       style="fill:#ffffff;fill-opacity:1;stroke:none;stroke-width:0.00000004;stroke-linecap:butt;stroke-linejoin:miter;stroke-miterlimit:4;stroke-dasharray:none;stroke-opacity:1"
       d="M 75.692206,185.875 H 62.463039"
       id="path3841"
       inkscape:connector-curvature="0" />
    <path
       inkscape:connector-curvature="0"
       style="fill:#ffffff;fill-opacity:1;stroke:none;stroke-width:0.00000004;stroke-linecap:round;stroke-linejoin:miter;stroke-miterlimit:4;stroke-dasharray:none;stroke-opacity:1"
       d="m 63.786169,164.70849 v 9.80892 l 10.594702,-0.023 -0.01137,-9.78617 z m 5.23844,1.38628 c 0.326615,0.0124 0.653658,0.25732 0.81752,0.69675 v 2.93668 h -1.634008 v -2.93668 c 0.16337,-0.48948 0.489872,-0.70926 0.816488,-0.69675 z"
       id="path3845"
       sodipodi:nodetypes="ccccccccccc" />
    <path
       inkscape:connector-curvature="0"
       style="fill:#ffffff;fill-opacity:1;stroke:none;stroke-width:0.00000004;stroke-linecap:butt;stroke-linejoin:miter;stroke-miterlimit:4;stroke-dasharray:none;stroke-opacity:1"
       d="m 63.786169,162.06266 v 2.6665 h 10.583333 v -2.6665 z m 5.23844,1.29523 c 0.326615,0.0126 0.653658,0.25965 0.81752,0.70309 v 0.65517 h -1.634008 v -0.65517 c 0.16337,-0.49394 0.489872,-0.71571 0.816488,-0.70309 z"
       id="path3849" />
    <path
       inkscape:connector-curvature="0"
       style="fill:#ffffff;fill-opacity:1;stroke:none;stroke-width:0.00000004;stroke-linecap:round;stroke-linejoin:miter;stroke-miterlimit:4;stroke-dasharray:none;stroke-opacity:1"
       d="m 74.586543,173.94514 -11.068058,0.0227 c -1.114762,-0.0761 -1.055233,0.26537 -1.055233,1.03043 v 37.33518 l 13.344921,0.0165 -0.0124,-25.93072 -0.03204,-11.4024 c 0.03428,-0.99501 -0.177346,-1.07177 -1.177189,-1.07177 z m -5.570203,4.65346 c 0.423174,0.0162 0.846546,0.33324 1.05885,0.90331 v 4.86843 h -2.116666 v -4.86843 c 0.211667,-0.635 0.634643,-0.91954 1.057816,-0.90331 z m -2.253092,1.86139 c 0.199087,0.01 0.39828,0.20177 0.498161,0.54673 v 3.36362 h -0.995805 v -3.36362 c 0.09958,-0.38425 0.298557,-0.55655 0.497644,-0.54673 z m 4.51497,0 c 0.199087,0.01 0.398279,0.20177 0.49816,0.54673 v 3.36362 h -0.995805 v -3.36362 c 0.09958,-0.38425 0.298557,-0.55655 0.497645,-0.54673 z m -2.231909,12.98319 c 0.498987,0.0163 0.998159,0.33539 1.248502,0.90795 v 5.41414 h -2.495972 v -5.41414 c 0.249592,-0.63776 0.748482,-0.92426 1.24747,-0.90795 z"
       id="path3892"
       sodipodi:nodetypes="ccscccccccccccccccccccccccccccccc" />
    <path
       style="fill:#ffffff;fill-opacity:1;stroke:none;stroke-width:0.00000004;stroke-linecap:round;stroke-linejoin:miter;stroke-miterlimit:4;stroke-dasharray:none;stroke-opacity:1"
       d="m 63.785956,162.19112 c -0.05292,-7.3025 10.530418,-7.3025 10.583333,0"
       id="path3896"
       inkscape:connector-curvature="0"
       sodipodi:nodetypes="cc" />
    <g
       id="g5159"
       transform="translate(-1.0986933)"
       style="fill:#020202;fill-opacity:0.91818183;stroke:none;stroke-width:0.00000004;stroke-miterlimit:4;stroke-dasharray:none;stroke-opacity:1" />
    <g
       id="g5154"
       transform="translate(-0.91349528)"
       style="fill:#020202;fill-opacity:0.91818183;stroke:none;stroke-width:0.00000004;stroke-miterlimit:4;stroke-dasharray:none;stroke-opacity:1" />
    <g
       id="g5164"
       transform="translate(-1.0193308)"
       style="fill:#020202;fill-opacity:0.91818183;stroke:none;stroke-width:0.00000004;stroke-miterlimit:4;stroke-dasharray:none;stroke-opacity:1" />
    <path
       style="fill:#ffffff;fill-opacity:1;stroke:none;stroke-width:0.00000004;stroke-linecap:butt;stroke-linejoin:miter;stroke-miterlimit:4;stroke-dasharray:none;stroke-opacity:1"
       d="M 63.733039,161.95666 H 74.316372"
       id="path4934"
       inkscape:connector-curvature="0" />
    <path
       style="fill:#ffffff;fill-opacity:1;stroke:none;stroke-width:0.00000004;stroke-linecap:butt;stroke-linejoin:miter;stroke-miterlimit:4;stroke-dasharray:none;stroke-opacity:1"
       d="m 74.258494,164.67526 h 1.058334 l -1.058334,1.27"
       id="path4936"
       inkscape:connector-curvature="0" />
    <path
       style="fill:#ffffff;fill-opacity:1;stroke:none;stroke-width:0.00000004;stroke-linecap:butt;stroke-linejoin:miter;stroke-miterlimit:4;stroke-dasharray:none;stroke-opacity:1"
       d="m 63.800456,164.66608 h -1.058334 l 1.058334,1.27"
       id="path4936-6"
       inkscape:connector-curvature="0" />
    <path
       style="fill:#ffffff;fill-opacity:1;stroke:none;stroke-width:0.00000004;stroke-linecap:butt;stroke-linejoin:round;stroke-miterlimit:4;stroke-dasharray:none;stroke-opacity:1"
       d="m 74.34221,163.03751 c 0.01811,-0.0214 0.723762,-0.12676 0.776677,0.4024 v 1.27 l -0.772931,-0.0189 z"
       id="path4957"
       inkscape:connector-curvature="0"
       sodipodi:nodetypes="ccccc" />
    <path
       style="fill:#ffffff;fill-opacity:1;stroke:none;stroke-width:0.00000004;stroke-linecap:butt;stroke-linejoin:round;stroke-miterlimit:4;stroke-dasharray:none;stroke-opacity:1"
       d="m 63.798761,163.09574 c -0.0042,-0.002 -0.693293,-0.16825 -0.746208,0.36091 l -0.0093,1.27 0.758415,0.0428 z"
       id="path4957-1"
       inkscape:connector-curvature="0"
       sodipodi:nodetypes="ccccc" />
    <path
       style="fill:#ffffff;fill-opacity:1;stroke:none;stroke-width:0.00000004;stroke-linecap:butt;stroke-linejoin:miter;stroke-miterlimit:4;stroke-dasharray:none;stroke-opacity:1"
       d="m 68.389706,156.77102 v -0.95681 c 0.01957,-0.85727 1.287704,-0.8361 1.27,0 v 0.93737"
       id="path4993"
       inkscape:connector-curvature="0"
       sodipodi:nodetypes="cccc" />
    <path
       inkscape:connector-curvature="0"
       style="fill:#ffffff;fill-opacity:1;stroke:none;stroke-width:0.00000004;stroke-linecap:butt;stroke-linejoin:miter;stroke-miterlimit:4;stroke-dasharray:none;stroke-opacity:1"
       d="m 110.08825,180.58349 v 31.75 h 13.22917 v -31.75 h -2.66185 v 2.62 h -1.28055 v -2.62 h -1.3627 v 2.61742 h -2.56781 v -2.61742 h -1.35805 v 2.64326 h -1.34721 v -2.64326 z m 6.63988,12.85969 c 0.49898,0.0163 0.99815,0.33539 1.2485,0.90795 v 5.41414 h -2.49597 v -5.41414 c 0.24959,-0.63776 0.74848,-0.92426 1.24747,-0.90795 z"
       id="path3801"
       sodipodi:nodetypes="ccccccccccccccccccccccc" />
  </g>
</svg>
