<?xml version="1.0" encoding="UTF-8" standalone="no"?>
<!DOCTYPE svg PUBLIC "-//W3C//DTD SVG 1.1//EN" "http://www.w3.org/Graphics/SVG/1.1/DTD/svg11.dtd">
<svg width="100%" height="100%" viewBox="0 0 1047 133" version="1.1" xmlns="http://www.w3.org/2000/svg" xmlns:xlink="http://www.w3.org/1999/xlink" xml:space="preserve" xmlns:serif="http://www.serif.com/" style="fill-rule:evenodd;clip-rule:evenodd;stroke-linejoin:round;stroke-miterlimit:2;">
    <g transform="matrix(1,0,0,1,-2512,-2058.14)">
        <g id="Artboard1" transform="matrix(0.24,0,0,0.24,0,0)">
            <rect x="0" y="0" width="35433.1" height="23622" style="fill:none;"/>
            <rect x="0" y="0" width="35433.1" height="23622" style="fill:rgb(101,101,101);"/>
            <g transform="matrix(8.77347,-1.05094e-16,1.05094e-16,-9.63163,12647.4,8852.51)">
                <rect x="-286" y="-100" width="572" height="200" style="fill:white;fill-rule:nonzero;"/>
            </g>
            <g transform="matrix(1.53199,0,0,1.53199,10235.9,7799.07)">
                <g transform="matrix(4.16667,0,0,4.16667,-476.929,-1988.98)">
                    <path d="M152.53,635.22C151.272,637.399 150.609,639.871 150.609,642.387C150.609,647.502 153.349,652.244 157.78,654.8L208.1,683.85C210.279,685.106 212.75,685.768 215.265,685.768C223.133,685.768 229.608,679.293 229.608,671.425C229.608,666.305 226.866,661.558 222.43,659L172.11,630C165.301,626.071 156.466,628.436 152.53,635.24L152.53,635.22Z" style="fill:rgb(66,133,244);fill-rule:nonzero;"/>
                </g>
                <g transform="matrix(4.16667,0,0,4.16667,-476.929,-1988.98)">
                    <path d="M197.58,640.09L222.43,625.75C226.829,623.186 229.543,618.462 229.543,613.37C229.543,605.509 223.074,599.04 215.213,599.04C212.718,599.04 210.266,599.692 208.1,600.93L167.65,624.28C169.921,624.622 172.109,625.385 174.1,626.53L197.58,640.09Z" style="fill:rgb(234,67,53);fill-rule:nonzero;"/>
                </g>
                <g transform="matrix(4.16667,0,0,4.16667,-476.929,-1988.98)">
                    <path d="M322.78,630L272.46,600.95C270.269,599.673 267.779,599 265.243,599C257.382,599 250.913,605.469 250.913,613.33C250.913,618.465 253.673,623.221 258.13,625.77L308.45,654.77C310.459,655.789 312.679,656.32 314.932,656.32C322.793,656.32 329.262,649.851 329.262,641.99C329.262,637.16 326.82,632.645 322.78,630Z" style="fill:rgb(52,168,83);fill-rule:nonzero;"/>
                </g>
                <g transform="matrix(4.16667,0,0,4.16667,-476.929,-1988.98)">
                    <path d="M265.31,685.77C267.82,685.769 270.287,685.106 272.46,683.85L312.91,660.5C310.638,660.16 308.45,659.396 306.46,658.25L283,644.69L258.13,659C253.702,661.557 250.965,666.297 250.965,671.41C250.965,679.271 257.434,685.74 265.295,685.74C265.3,685.74 265.305,685.74 265.31,685.74L265.31,685.77Z" style="fill:rgb(251,188,4);fill-rule:nonzero;"/>
                </g>
                <g transform="matrix(4.16667,0,0,4.16667,-476.929,-1988.98)">
                    <path d="M397.39,670.23C386.083,663.77 379.082,651.707 379.082,638.685C379.082,625.663 386.083,613.6 397.39,607.14C402.943,603.974 409.238,602.334 415.63,602.39C420.654,602.35 425.637,603.305 430.29,605.2C434.614,606.938 438.493,609.624 441.64,613.06L434.07,620.63C431.827,618.122 429.062,616.136 425.97,614.81C422.668,613.433 419.117,612.752 415.54,612.81C411.156,612.785 406.839,613.883 403,616C399.123,618.137 395.903,621.295 393.69,625.13C389.028,633.58 389.028,643.86 393.69,652.31C395.91,656.129 399.129,659.272 403,661.4C410.113,665.131 418.497,665.627 426,662.76C428.757,661.532 431.284,659.841 433.47,657.76C434.983,656.204 436.215,654.397 437.11,652.42C438.135,650.204 438.81,647.843 439.11,645.42L415.54,645.42L415.54,635.72L449.41,635.72C449.735,637.579 449.895,639.463 449.89,641.35C449.914,645.65 449.238,649.926 447.89,654.01C446.578,657.983 444.347,661.591 441.38,664.54C434.827,671.513 426.243,675 415.63,675C409.236,675.049 402.941,673.403 397.39,670.23Z" style="fill-rule:nonzero;"/>
                </g>
                <g transform="matrix(4.16667,0,0,4.16667,-476.929,-1988.98)">
                    <path d="M462.42,603.94L484.64,603.94C491.184,603.791 497.661,605.294 503.47,608.31C508.713,611.094 513.017,615.368 515.84,620.59C521.595,631.96 521.595,645.42 515.84,656.79C513.012,662.008 508.709,666.28 503.47,669.07C497.66,672.083 491.183,673.583 484.64,673.43L462.42,673.43L462.42,603.94ZM484.42,663.05C492.18,663.05 498.243,660.9 502.61,656.6C506.977,652.3 509.16,646.33 509.16,638.69C509.16,631.117 506.977,625.163 502.61,620.83C498.243,616.497 492.18,614.33 484.42,614.33L473.29,614.33L473.29,663.05L484.42,663.05Z" style="fill-rule:nonzero;"/>
                </g>
                <g transform="matrix(4.16667,0,0,4.16667,-476.929,-1988.98)">
                    <path d="M547.24,670.23C535.933,663.77 528.932,651.707 528.932,638.685C528.932,625.663 535.933,613.6 547.24,607.14C552.797,603.973 559.094,602.334 565.49,602.39C570.511,602.35 575.49,603.305 580.14,605.2C584.467,606.938 588.349,609.624 591.5,613.06L583.93,620.63C581.682,618.124 578.914,616.138 575.82,614.81C572.518,613.433 568.967,612.752 565.39,612.81C561.012,612.79 556.701,613.892 552.87,616.01C548.99,618.147 545.767,621.305 543.55,625.14C538.901,633.593 538.901,643.867 543.55,652.32C545.77,656.15 548.992,659.304 552.87,661.44C559.983,665.171 568.367,665.667 575.87,662.8C578.632,661.575 581.162,659.883 583.35,657.8C584.859,656.241 586.091,654.435 586.99,652.46C588.015,650.244 588.69,647.883 588.99,645.46L565.39,645.46L565.39,635.76L599.27,635.76C599.595,637.619 599.755,639.503 599.75,641.39C599.779,645.691 599.103,649.967 597.75,654.05C596.438,658.02 594.211,661.627 591.25,664.58C584.683,671.527 576.097,675 565.49,675C559.093,675.049 552.795,673.403 547.24,670.23Z" style="fill-rule:nonzero;"/>
                </g>
                <g transform="matrix(4.16667,0,0,4.16667,-476.929,-1988.98)">
                    <path d="M632.17,670.67C628.132,667.67 625.196,663.418 623.82,658.58L633.91,654.41C635.91,661.203 639.953,664.6 646.04,664.6C649.106,664.728 652.071,663.462 654.1,661.16C656.191,658.611 657.26,655.373 657.1,652.08L657.1,603.94L667.87,603.94L667.87,651.69C667.994,656.064 667.028,660.401 665.06,664.31C663.317,667.685 660.613,670.469 657.29,672.31C649.269,676.439 639.593,675.823 632.16,670.71L632.17,670.67Z" style="fill-rule:nonzero;"/>
                </g>
                <g transform="matrix(4.16667,0,0,4.16667,-476.929,-1988.98)">
                    <path d="M686.91,672.9C684.219,671.6 681.958,669.551 680.4,667C678.834,664.376 678.03,661.366 678.08,658.31C677.905,653.571 680.063,649.035 683.85,646.18C687.697,643.2 692.567,641.713 698.46,641.72C701.103,641.69 703.74,641.965 706.32,642.54C708.22,642.948 710.074,643.551 711.85,644.34L711.85,641.81C711.93,638.945 710.672,636.2 708.45,634.39C705.984,632.409 702.881,631.389 699.72,631.52C697.245,631.513 694.801,632.078 692.58,633.17C690.426,634.209 688.573,635.782 687.2,637.74L679.72,632C681.926,628.958 684.864,626.519 688.26,624.91C691.902,623.198 695.886,622.337 699.91,622.39C707.09,622.39 712.623,624.153 716.51,627.68C720.397,631.207 722.337,636.173 722.33,642.58L722.33,673.44L711.85,673.44L711.85,667.52L711.37,667.52C709.831,669.759 707.772,671.591 705.37,672.86C702.624,674.321 699.55,675.058 696.44,675C693.143,675.058 689.878,674.339 686.91,672.9ZM705.25,664.31C707.28,663.123 708.955,661.414 710.1,659.36C711.261,657.319 711.865,655.008 711.85,652.66C710.212,651.776 708.468,651.104 706.66,650.66C704.644,650.143 702.571,649.885 700.49,649.89C696.49,649.89 693.547,650.683 691.66,652.27C689.824,653.778 688.785,656.055 688.85,658.43C688.802,660.596 689.773,662.663 691.47,664.01C693.398,665.527 695.809,666.301 698.26,666.19C700.718,666.215 703.136,665.565 705.25,664.31Z" style="fill-rule:nonzero;"/>
                </g>
                <g transform="matrix(4.16667,0,0,4.16667,-476.929,-1988.98)">
                    <path d="M743.06,671.59C739.254,669.356 736.139,666.113 734.06,662.22C731.854,658.088 730.736,653.463 730.81,648.78C730.774,644.206 731.856,639.692 733.96,635.63C735.975,631.686 739.006,628.351 742.74,625.97C746.575,623.557 751.03,622.309 755.56,622.38C760.115,622.256 764.616,623.398 768.56,625.68C772.155,627.809 775.056,630.936 776.91,634.68C778.865,638.699 779.845,643.122 779.77,647.59C779.754,648.725 779.657,649.858 779.48,650.98L741.45,650.98C741.843,655.58 743.48,659.123 746.36,661.61C749.114,664.052 752.68,665.385 756.36,665.35C759.141,665.418 761.885,664.693 764.27,663.26C766.519,661.854 768.373,659.899 769.66,657.58L778.66,661.85C776.48,665.771 773.342,669.078 769.54,671.46C761.317,676.085 751.257,676.123 743,671.56L743.06,671.59ZM768.82,642.86C768.664,641.029 768.101,639.255 767.17,637.67C766.109,635.865 764.587,634.373 762.76,633.35C760.552,632.125 758.054,631.521 755.53,631.6C752.355,631.507 749.256,632.598 746.84,634.66C744.401,636.823 742.689,639.688 741.94,642.86L768.82,642.86ZM755.23,601.71L767.37,601.71L759.6,614.42L750.67,614.42L755.23,601.71Z" style="fill-rule:nonzero;"/>
                </g>
                <g transform="matrix(4.16667,0,0,4.16667,-476.929,-1988.98)">
                    <path d="M789.4,623.93L799.59,623.93L799.59,630.44L800.07,630.44C801.638,627.982 803.834,625.986 806.43,624.66C809.19,623.153 812.286,622.369 815.43,622.38C821.43,622.38 826.007,624.143 829.16,627.67C832.313,631.197 833.883,636 833.87,642.08L833.87,673.43L823.17,673.43L823.17,643.54C823.17,639.66 822.217,636.813 820.31,635C818.403,633.187 815.767,632.28 812.4,632.28C810.106,632.256 807.863,632.956 805.99,634.28C804.098,635.631 802.594,637.455 801.63,639.57C800.586,641.787 800.053,644.21 800.07,646.66L800.07,673.44L789.4,673.44L789.4,623.93Z" style="fill-rule:nonzero;"/>
                </g>
            </g>
            <g id="uja-group" serif:id="uja group">
            </g>
            <g id="uja-group1" serif:id="uja group">
            </g>
            <g id="uja-group2" serif:id="uja group">
            </g>
            <g id="uja-group3" serif:id="uja group">
            </g>
            <g id="uja-group4" serif:id="uja group">
            </g>
            <g id="uja-group5" serif:id="uja group">
            </g>
            <g id="uja-group6" serif:id="uja group">
            </g>
            <g id="uja-group7" serif:id="uja group">
            </g>
            <g id="uja-group8" serif:id="uja group">
            </g>
            <g id="uja-group9" serif:id="uja group">
            </g>
            <g id="uja-group10" serif:id="uja group">
            </g>
            <g id="uja-group11" serif:id="uja group">
            </g>
            <g id="uja-group12" serif:id="uja group">
            </g>
            <g id="uja-group13" serif:id="uja group">
            </g>
            <g id="uja-group14" serif:id="uja group">
            </g>
            <g id="uja-group15" serif:id="uja group">
            </g>
            <g id="uja-group16" serif:id="uja group">
            </g>
            <g id="uja-group17" serif:id="uja group">
            </g>
            <g id="uja-group18" serif:id="uja group">
            </g>
            <g id="uja-group19" serif:id="uja group">
            </g>
            <g id="uja-group20" serif:id="uja group">
            </g>
        </g>
    </g>
</svg>
