<svg width="154" height="42" viewBox="0 0 154 42" fill="none" xmlns="http://www.w3.org/2000/svg">
<path d="M141.332 23.1534H153.247V25.3277H143.668V31.1235H152.042V33.143H143.668V39.262H153.409V41.4363H141.332V23.1534ZM130.461 41.7527C127.995 41.6869 125.653 40.6613 123.932 38.8941C122.212 37.127 121.249 34.7579 121.249 32.2915C121.249 29.825 122.212 27.456 123.932 25.6888C125.653 23.9217 127.995 22.896 130.461 22.8303C134.244 22.8303 137.953 25.0046 138.835 29.4339H136.499C135.698 26.4586 133.281 25.0046 130.38 25.0046C126.435 25.0046 123.46 28.0674 123.46 32.3352C123.46 36.603 126.516 39.5784 130.38 39.5784C133.281 39.5784 135.698 38.1311 136.499 35.149H138.916C138.034 39.4976 134.325 41.7527 130.461 41.7527ZM116.21 35.2298L112.589 26.4788L112.508 26.1556L112.427 26.4788L108.799 35.1692H116.203L116.21 35.2298ZM117.018 37.2493H107.998L106.308 41.3555H103.811L111.458 23.1803H113.713L121.286 41.3555H118.788L117.018 37.2493ZM98.6542 32.9747C99.6335 32.9643 100.57 32.571 101.263 31.8791C101.956 31.1873 102.351 30.2516 102.363 29.2724V29.1108C102.38 28.6224 102.299 28.1355 102.125 27.679C101.951 27.2224 101.687 26.8054 101.348 26.4527C101.01 26.1 100.605 25.8187 100.156 25.6255C99.7068 25.4322 99.2237 25.331 98.735 25.3277H93.7469V33.0555H98.6542V32.9747ZM91.3303 23.1534H98.735C99.4955 23.1191 100.255 23.2374 100.969 23.5014C101.683 23.7654 102.337 24.1697 102.892 24.6904C103.447 25.2111 103.893 25.8378 104.202 26.5334C104.511 27.229 104.678 27.9795 104.692 28.7406V29.1445C104.777 30.6609 104.258 32.1492 103.249 33.2843C102.24 34.4195 100.823 35.1092 99.3072 35.2029H93.7537V41.4026H91.4178L91.3303 23.1534ZM81.9869 41.7527C77.0796 41.7527 74.9053 38.8581 74.9053 36.1184H77.2344C77.2344 38.0503 79.0115 39.7399 81.9061 39.7399C84.8007 39.7399 86.6586 38.6158 86.6586 36.3742C86.6586 34.1326 84.6391 33.4729 81.9869 33.069C79.0115 32.5102 75.3832 31.5409 75.3832 27.8385C75.3832 25.0988 77.2344 22.7629 81.9061 22.7629C86.0931 22.7629 88.3482 24.9372 88.3482 27.9193H86.0124C86.0124 26.1489 84.5651 24.8565 81.8253 24.8565C78.6076 24.8565 77.6383 26.3105 77.6383 27.8385C77.6383 29.7705 79.4087 30.5783 82.6331 30.9754C85.6085 31.4601 88.9944 32.591 88.9944 36.2934C89.0752 39.7534 86.4162 41.7661 81.9869 41.7661" fill="black"/>
<path d="M139.643 0.609516H153.247V5.11966H144.873V7.52956H152.042V11.7974H144.873V14.49H153.409V19.0001H139.643V0.609516ZM127.082 14.4563C130.299 14.4563 132.15 12.7667 132.15 9.78464C132.15 6.80256 130.461 5.03889 127.082 5.03889H124.423V14.3756H127.082V14.4563ZM119.253 0.609516H127.23C133.349 0.609516 137.374 4.31188 137.374 9.78464C137.374 15.2574 133.335 18.9665 127.23 18.9665H119.152L119.253 0.609516ZM106.692 14.7458C107.997 14.7866 109.266 14.3161 110.229 13.4346C111.192 12.5532 111.773 11.3305 111.848 10.027V9.78464C111.8 8.45021 111.236 7.18652 110.275 6.25953C109.314 5.33254 108.03 4.81454 106.695 4.81454C105.36 4.81454 104.077 5.33254 103.115 6.25953C102.154 7.18652 101.59 8.45021 101.542 9.78464C101.536 10.4355 101.658 11.0812 101.902 11.6847C102.146 12.2883 102.506 12.8378 102.963 13.3018C103.419 13.7658 103.963 14.1351 104.562 14.3887C105.162 14.6423 105.805 14.7751 106.456 14.7795L106.692 14.7458ZM106.692 19.4175C100.977 19.4175 96.3049 15.0689 96.3049 9.75098C96.3049 4.43305 100.896 0.0911865 106.692 0.0911865C112.488 0.0911865 117.004 4.359 117.004 9.75098C117.004 15.143 112.427 19.4512 106.705 19.4512M85.1305 19.4512C79.4895 19.4512 74.9053 15.1026 74.9053 9.78464C74.9053 4.4667 79.4895 0.124844 85.1305 0.124844C89.0752 0.124844 93.9825 2.4607 94.7095 8.25657H89.3983C89.2346 7.24186 88.6981 6.32476 87.8938 5.6848C87.0895 5.04485 86.0753 4.7281 85.0497 4.79655C83.8134 4.76363 82.6137 5.21808 81.7095 6.06185C80.8053 6.90562 80.269 8.07106 80.2165 9.3067V9.78464C80.2165 13.1504 82.4716 14.7795 85.0497 14.7795C86.078 14.8606 87.0987 14.5486 87.9059 13.9064C88.713 13.2642 89.2464 12.3396 89.3983 11.3194H94.7095C93.9085 17.0345 89.156 19.4512 85.1305 19.4512Z" fill="black"/>
<path d="M54.5549 21.4778L36.0498 41.3494H45.474C46.558 41.3549 47.6014 40.9371 48.382 40.1848L64.0531 23.403C64.7424 22.6358 65.1236 21.6408 65.1236 20.6094C65.1236 19.578 64.7424 18.5831 64.0531 17.8158L49.7822 2.52844L46.551 11.1448L54.5549 19.7411C54.7667 19.9727 54.8844 20.2753 54.8847 20.5892C54.8747 20.9074 54.7586 21.213 54.5549 21.4576" fill="black"/>
<path d="M46.3069 0.125366H38.1483C37.2424 0.153572 36.3675 0.461979 35.6441 1.0081C34.9208 1.55423 34.3846 2.31121 34.1093 3.17477L32.0899 8.44558L19.4951 41.3495H19.549H28.0913C29.9829 41.3495 31.0532 39.8887 31.6456 38.6097L43.0287 8.70138L46.3069 0.125366Z" fill="black"/>
<path d="M0.778333 20.8318C0.780075 21.8568 1.16137 22.8448 1.84865 23.6052L16.1196 38.9464L19.3373 30.3165L11.2594 21.6799C11.0431 21.4492 10.9227 21.1447 10.9227 20.8284C10.9227 20.5121 11.0431 20.2077 11.2594 19.9769L29.7846 0.125488H20.3605C19.2841 0.128684 18.2501 0.54564 17.4726 1.29005L1.81499 18.0382C1.14397 18.814 0.775819 19.8061 0.778333 20.8318Z" fill="black"/>
</svg>
