<svg xmlns="http://www.w3.org/2000/svg" viewBox="0 0 239.1 42.8"><defs><style>.cls-1{fill:#353949;}.cls-2{fill:#e8675a;}</style></defs><g id="Layer_2" data-name="Layer 2"><g id="Layer_1-2" data-name="Layer 1"><path class="cls-1" d="M58.2,41.1c5.1-.4,6.6-1.7,6.6-6.6V8.4c0-4.9-1.4-6.3-6.6-6.6V.9H93V13.2h-.9c-.9-7.3-4.2-11-11.9-11H74.7V20.9H77c6.6,0,9.3-2.5,10-7.7h.9V30H87c-.6-5.3-3.4-7.7-10-7.7H74.7V34.4c0,4.9,1.7,6.2,7.5,6.6v.9h-24Z"></path><path class="cls-1" d="M93.9,28c0-8.8,6.3-14.7,14.9-14.7s14.9,5.9,14.9,14.7-6.3,14.7-14.9,14.7S93.9,36.9,93.9,28Zm20.6,0c0-8.7-2.2-13.2-5.7-13.2s-5.7,4.5-5.7,13.2,2.2,13.2,5.7,13.2,5.7-4.5,5.7-13.2Z"></path><path class="cls-1" d="M131,22.1c0-2.8-1.2-4-4.9-4v-.8l13.1-3.7h.2V24.2h.3c1.7-7.1,4.2-10.8,8.2-10.8a5.66,5.66,0,0,1,1.8.3v7.7a8.53,8.53,0,0,0-3.1-.6c-2.8,0-5.6,1.4-7.2,5.7v9.9c0,3.5,1.4,4.4,4.6,4.7V42H126.6v-.9c3.4-.4,4.4-1.2,4.4-4.7V22.1Z"></path><path class="cls-1" d="M155.7,34.8V15.5h-5v-.2l13.1-9.6h.2v8.5h8.8v1.3h-8.7V35.9c0,2.6,1.7,3.6,3.8,3.6a9,9,0,0,0,4.8-1.4l.5.6a13.5,13.5,0,0,1-9.2,4.1C159.6,42.8,155.7,40.7,155.7,34.8Z"></path><path class="cls-1" d="M178.3,22.1c0-2.8-1.2-4-4.9-4v-.8l13.1-3.7h.2V24.2h.3c1.7-7.1,4.2-10.8,8.2-10.8a5.66,5.66,0,0,1,1.8.3v7.7a8.53,8.53,0,0,0-3.1-.6c-2.8,0-5.6,1.4-7.2,5.7v9.9c0,3.5,1.4,4.4,4.6,4.7V42H173.9v-.9c3.4-.4,4.4-1.2,4.4-4.7Z"></path><path class="cls-1" d="M211.8,36.3c0,3.6.9,4.4,4.1,4.8V42H199v-.9c3.4-.4,4.4-1.2,4.4-4.8V22c0-2.7-1.2-4-4.9-4v-.8l13.1-3.7h.2Zm-9-31.5A4.8,4.8,0,0,1,207.6,0a4.87,4.87,0,0,1,4.8,4.8,4.87,4.87,0,0,1-4.8,4.8A4.74,4.74,0,0,1,202.8,4.8Z"></path><path class="cls-1" d="M219.3,40.5V32.6h.9c1.8,6.2,4.3,8.6,7.9,8.6,2.4,0,4.6-1.3,4.6-3.6,0-1.7-.8-2.7-3.7-4.1l-3.8-2c-4.3-2.2-6.1-5-6.1-8.7,0-5.3,4.5-9.5,11.1-9.5a19.94,19.94,0,0,1,7.7,1.5v7.9H237c-1.1-5.3-3.6-7.7-7.4-7.7-2.6,0-4.5,1.5-4.5,3.7,0,1.5.8,2.8,4,4.4l3.6,1.7c4.4,2.1,6.4,4.5,6.4,8.4,0,5.6-4.8,9.6-11.3,9.6A18,18,0,0,1,219.3,40.5Z"></path><path class="cls-2" d="M4.9.9H39.7a4.91,4.91,0,0,1,4.9,4.9h0a4.91,4.91,0,0,1-4.9,4.9H4.9A4.91,4.91,0,0,1,0,5.8H0A4.84,4.84,0,0,1,4.9.9Z"></path><path class="cls-2" d="M4.9,32.2H17.4a4.91,4.91,0,0,1,4.9,4.9h0A4.91,4.91,0,0,1,17.4,42H4.9A4.91,4.91,0,0,1,0,37.1H0A4.91,4.91,0,0,1,4.9,32.2Z"></path><path class="cls-2" d="M4.9,16.5H30a4.91,4.91,0,0,1,4.9,4.9h0A4.91,4.91,0,0,1,30,26.3H4.9A4.91,4.91,0,0,1,0,21.4H0A4.91,4.91,0,0,1,4.9,16.5Z"></path></g></g></svg>