<svg width="215" height="38" viewBox="0 0 215 38" fill="none" xmlns="http://www.w3.org/2000/svg">
<path d="M52.1055 35.7495C56.6716 35.4015 58.0145 34.2707 58.0145 30.0085V7.30547C58.0145 3.04322 56.7611 1.82543 52.1055 1.56448V0.781616H83.2624V11.4807H82.4566C81.6508 5.13085 78.6963 1.91242 71.8023 1.91242H66.8781V18.1786H68.9373C74.8464 18.1786 77.2638 16.0039 77.8905 11.4807H78.6963V26.0942H77.8905C77.3533 21.484 74.8464 19.3963 68.9373 19.3963H66.8781V29.9215C66.8781 34.1837 68.4002 35.3145 73.593 35.6625V36.4453H52.1055V35.7495Z" fill="black"/>
<path d="M84.0713 24.3555C84.0713 16.7008 89.7118 11.5687 97.4114 11.5687C105.111 11.5687 110.752 16.7008 110.752 24.3555C110.752 32.0101 105.111 37.1422 97.4114 37.1422C89.7118 37.1422 84.0713 32.0971 84.0713 24.3555ZM102.515 24.3555C102.515 16.7878 100.545 12.8735 97.4114 12.8735C94.2779 12.8735 92.3082 16.7878 92.3082 24.3555C92.3082 31.9231 94.2779 35.8375 97.4114 35.8375C100.545 35.8375 102.515 31.9231 102.515 24.3555Z" fill="black"/>
<path d="M117.285 19.2233C117.285 16.7877 116.211 15.7439 112.898 15.7439V15.048L124.627 11.8296H124.806V21.05H125.075C126.597 14.8741 128.835 11.6556 132.416 11.6556C132.964 11.6574 133.509 11.7455 134.028 11.9166V18.6144C133.144 18.2741 132.203 18.0971 131.252 18.0925C128.745 18.0925 126.239 19.3103 124.806 23.0506V31.6621C124.806 34.7066 126.06 35.4894 128.925 35.7504V36.5333H113.346V35.7504C116.39 35.4025 117.285 34.7066 117.285 31.6621V19.2233Z" fill="black"/>
<path d="M139.404 30.2697V13.4817H134.928V13.3077L146.656 4.95715H146.835V12.3509H154.714V13.4817H146.925V31.2265C146.925 33.4881 148.447 34.358 150.327 34.358C151.849 34.3546 153.339 33.9323 154.625 33.1402L155.072 33.6621C152.903 35.8387 149.952 37.1166 146.835 37.2285C142.896 37.2285 139.404 35.4018 139.404 30.2697Z" fill="black"/>
<path d="M159.635 19.2233C159.635 16.7877 158.561 15.7439 155.248 15.7439V15.048L166.977 11.8296H167.156V21.05H167.424C168.946 14.8741 171.185 11.6556 174.766 11.6556C175.314 11.6574 175.858 11.7455 176.377 11.9166V18.6144C175.494 18.2741 174.552 18.0971 173.602 18.0925C171.095 18.0925 168.588 19.3103 167.156 23.0506V31.6621C167.156 34.7066 168.409 35.4894 171.274 35.7504V36.5333H155.696V35.7504C158.74 35.4025 159.635 34.7066 159.635 31.6621V19.2233Z" fill="black"/>
<path d="M189.627 31.5752C189.627 34.7066 190.433 35.4025 193.298 35.7505V36.5333H178.167V35.7505C181.211 35.4025 182.107 34.7066 182.107 31.5752V19.1364C182.107 16.7878 181.032 15.657 177.72 15.657V14.9611L189.448 11.7427H189.627V31.5752ZM181.57 4.17502C181.57 3.06767 182.022 2.00568 182.828 1.22266C183.634 0.439649 184.727 -0.000244141 185.867 -0.000244141C187.002 0.0154915 188.086 0.460436 188.888 1.24007C189.69 2.01969 190.148 3.07257 190.165 4.17502C190.148 5.27747 189.69 6.33035 188.888 7.10998C188.086 7.8896 187.002 8.33455 185.867 8.35029C185.301 8.3573 184.739 8.25409 184.214 8.04674C183.689 7.8394 183.213 7.53211 182.812 7.143C182.412 6.75389 182.095 6.29082 181.882 5.78108C181.669 5.27135 181.562 4.72527 181.57 4.17502Z" fill="black"/>
<path d="M196.344 35.2288V28.357H197.15C198.761 33.7501 201 35.8377 204.223 35.8377C206.372 35.8377 208.341 34.7069 208.341 32.7063C208.341 31.2275 207.625 30.3577 205.029 29.1399L201.626 27.4002C197.777 25.4865 196.165 23.051 196.165 19.8325C196.165 15.2224 200.194 11.569 206.103 11.569C208.467 11.5561 210.811 11.9996 212.997 12.8738V19.7456H212.191C211.206 15.1354 208.968 13.0477 205.566 13.0477C203.238 13.0477 201.537 14.3525 201.537 16.2662C201.537 17.5709 202.253 18.7017 205.118 20.0935L208.341 21.5722C212.281 23.3989 214.071 25.4865 214.071 28.8789C214.071 33.7501 209.774 37.2295 203.954 37.2295C201.286 37.185 198.671 36.4976 196.344 35.2288Z" fill="black"/>
<path d="M4.38737 0.781944H35.5443C36.707 0.784242 37.8215 1.23404 38.6437 2.03287C39.466 2.8317 39.9289 3.91448 39.9313 5.04419C39.9289 6.17391 39.466 7.25669 38.6437 8.05552C37.8215 8.85435 36.707 9.30414 35.5443 9.30644H4.38737C3.22458 9.30414 2.1101 8.85435 1.28788 8.05552C0.465667 7.25669 0.002703 6.17391 0.000337201 5.04419C-0.00687502 4.48252 0.101673 3.92513 0.319588 3.40485C0.537504 2.88456 0.860379 2.4119 1.2692 2.01471C1.67802 1.61752 2.16451 1.30383 2.70003 1.09211C3.23555 0.880398 3.80926 0.774937 4.38737 0.781944Z" fill="black"/>
<path d="M4.38703 28.009H15.5784C16.7412 28.0113 17.8557 28.4611 18.6779 29.26C19.5001 30.0588 19.9631 31.1416 19.9655 32.2713C19.9631 33.401 19.5001 34.4838 18.6779 35.2826C17.8557 36.0814 16.7412 36.5312 15.5784 36.5335H4.38703C3.22425 36.5312 2.10976 36.0814 1.28755 35.2826C0.465329 34.4838 0.0023658 33.401 0 32.2713H0C0.0023658 31.1416 0.465329 30.0588 1.28755 29.26C2.10976 28.4611 3.22425 28.0113 4.38703 28.009Z" fill="black"/>
<path d="M4.38703 14.3517H26.8594C28.0222 14.354 29.1366 14.8038 29.9589 15.6026C30.7811 16.4014 31.244 17.4842 31.2464 18.6139C31.244 19.7436 30.7811 20.8264 29.9589 21.6253C29.1366 22.4241 28.0222 22.8739 26.8594 22.8762H4.38703C3.22425 22.8739 2.10976 22.4241 1.28755 21.6253C0.465329 20.8264 0.0023658 19.7436 0 18.6139H0C0.0023658 17.4842 0.465329 16.4014 1.28755 15.6026C2.10976 14.8038 3.22425 14.354 4.38703 14.3517Z" fill="black"/>
</svg>
